# Blender 3.6.22
# www.blender.org
mtllib Chair.mtl
o Chair.001
v -0.676891 0.980932 0.936596
v -0.676891 0.980932 -0.933273
v -0.676891 2.052796 0.936596
v -0.676891 2.052796 -0.933273
v -0.618765 0.980932 0.936596
v -0.618765 2.052796 0.936596
v -0.618765 0.980932 -0.933273
v -0.618765 2.052796 -0.933273
v -0.584433 -0.038222 0.947454
v -0.584433 0.131078 0.947454
v -0.584433 -0.038222 -0.944132
v -0.584433 0.131078 -0.944132
v 1.442367 -0.038222 0.947454
v 1.442367 0.131078 0.947454
v 1.442367 -0.038222 -0.944132
v 1.442367 0.131078 -0.944132
v -0.584433 -0.038222 0.491329
v -0.584433 -0.038222 -0.488007
v -0.584433 0.131078 -0.488007
v -0.584433 0.131078 0.491329
v 1.442367 -0.038222 -0.488007
v 1.442367 -0.038222 0.491329
v 1.442367 0.131078 0.491329
v 1.442367 0.131078 -0.488007
v -0.676892 0.980932 0.387360
v -0.676892 0.980932 0.580215
v -0.676891 -0.038222 -0.309801
v -0.676891 -0.038222 0.233618
v -0.676892 0.980932 -0.576893
v -0.676892 0.980932 -0.384037
v -0.676891 -0.038222 -0.150728
v -0.676891 -0.038222 0.074543
v -0.735017 0.980932 0.580215
v -0.735017 0.980932 -0.576893
v -0.735017 0.980932 0.387360
v -0.735017 0.980932 -0.384037
v -0.618765 -0.038222 0.233618
v -0.735017 0.980932 0.387360
v -0.735017 0.980932 0.580215
v -0.618765 -0.038222 -0.309801
v -0.618765 -0.038222 0.074543
v -0.735017 0.980932 -0.576893
v -0.735017 0.980932 -0.384037
v -0.618765 -0.038222 -0.150728
v -0.676892 0.980932 -0.384037
v -0.676892 0.980932 -0.576893
v -0.676892 0.980932 0.580215
v -0.676892 0.980932 0.387360
v -0.712770 0.536101 0.547997
v -0.676891 0.215076 0.563324
v -0.676891 0.215076 -0.560001
v -0.712770 0.536101 -0.544674
v -0.676891 0.215076 0.404251
v -0.712770 0.536101 0.419577
v -0.712770 0.536101 -0.416254
v -0.676891 0.215076 -0.400928
v -0.618765 0.215076 0.563324
v -0.654644 0.536101 0.547997
v -0.654644 0.536101 -0.544674
v -0.618765 0.215076 -0.560001
v -0.654644 0.536101 0.419577
v -0.618765 0.215076 0.404251
v -0.618765 0.215076 -0.400928
v -0.654644 0.536101 -0.416254
v -0.676892 1.347274 0.617737
v -0.735017 1.347274 0.617737
v -0.676892 1.347274 0.349838
v -0.735017 1.347274 0.349838
v -0.676892 1.347274 -0.346516
v -0.676892 1.347274 -0.614414
v -0.735017 1.347274 -0.346516
v -0.735017 1.347274 -0.614414
v -0.735017 1.613535 -0.400928
v -0.735017 1.613535 -0.560001
v -0.735017 1.613535 0.404251
v -0.676892 1.613535 0.404251
v -0.735017 1.613535 0.563324
v -0.676892 1.613535 -0.560001
v -0.676892 1.613535 -0.400928
v -0.676892 1.613535 0.563324
v -0.735017 1.347274 0.201168
v -0.676892 1.347274 0.201168
v -0.676892 1.347274 -0.763084
v -0.735017 1.347274 -0.763084
v -0.735017 1.347274 -0.197845
v -0.676892 1.347274 -0.197845
v -0.676892 1.347274 0.766407
v -0.735017 1.347274 0.766407
v -0.735017 1.613535 -0.197845
v -0.735017 1.613535 -0.763084
v -0.735017 1.613535 0.201168
v -0.676892 1.613535 0.201168
v -0.735017 1.613535 0.766407
v -0.676892 1.613535 -0.763084
v -0.676892 1.613535 -0.197845
v -0.676892 1.613535 0.766407
v -0.183158 -0.038222 0.424915
v -0.618581 -1.425882 0.815018
v -0.062459 -0.038222 0.559635
v -0.497883 -1.425882 0.949739
v -0.317879 -0.038222 0.545612
v -0.753302 -1.425882 0.935717
v -0.197180 -0.038222 0.680334
v -0.632603 -1.425882 1.070438
v -0.414309 -1.075733 0.632006
v -0.212658 -0.396000 0.451344
v -0.289608 -0.736230 0.520285
v -0.091958 -0.396000 0.586063
v -0.293610 -1.075733 0.766727
v -0.168909 -0.736230 0.655006
v -0.226679 -0.396000 0.706762
v -0.428330 -1.082470 0.887426
v -0.303631 -0.739781 0.775705
v -0.347378 -0.396000 0.572042
v -0.549029 -1.082470 0.752705
v -0.424329 -0.739781 0.640984
v -0.618581 -1.425882 0.815018
v -0.497883 -1.425882 0.949739
v -0.632603 -1.425882 1.070438
v -0.753302 -1.425882 0.935717
v 0.923670 -0.038222 0.685236
v 1.313774 -1.425882 1.120659
v 1.058391 -0.038222 0.564537
v 1.448494 -1.425882 0.999960
v 1.044369 -0.038222 0.819956
v 1.434473 -1.425882 1.255379
v 1.179090 -0.038222 0.699257
v 1.569193 -1.425882 1.134680
v 1.130762 -1.075733 0.916386
v 0.950099 -0.396000 0.714735
v 1.019041 -0.736230 0.791685
v 1.084820 -0.396000 0.594036
v 1.265482 -1.075733 0.795687
v 1.153762 -0.736230 0.670986
v 1.205519 -0.396000 0.728756
v 1.386181 -1.082469 0.930408
v 1.274461 -0.739781 0.805708
v 1.070798 -0.396000 0.849455
v 1.251461 -1.082469 1.051105
v 1.139740 -0.739781 0.926407
v 1.313774 -1.425882 1.120659
v 1.448494 -1.425882 0.999960
v 1.569193 -1.425882 1.134680
v 1.434473 -1.425882 1.255379
v 1.183990 -0.038222 -0.421593
v 1.619414 -1.425881 -0.811697
v 1.063293 -0.038222 -0.556313
v 1.498715 -1.425881 -0.946417
v 1.318712 -0.038222 -0.542292
v 1.754135 -1.425881 -0.932396
v 1.198013 -0.038222 -0.677011
v 1.633436 -1.425881 -1.067116
v 1.415141 -1.075733 -0.628685
v 1.213490 -0.396000 -0.448021
v 1.290442 -0.736230 -0.516964
v 1.092792 -0.396000 -0.582743
v 1.294443 -1.075733 -0.763405
v 1.169743 -0.736230 -0.651684
v 1.227512 -0.396000 -0.703442
v 1.429163 -1.082469 -0.884104
v 1.304463 -0.739781 -0.772383
v 1.348211 -0.396000 -0.568720
v 1.549862 -1.082469 -0.749384
v 1.425162 -0.739781 -0.637663
v 1.619414 -1.425881 -0.811697
v 1.498715 -1.425881 -0.946417
v 1.633436 -1.425881 -1.067116
v 1.754135 -1.425881 -0.932396
v 0.077164 -0.038222 -0.681913
v -0.312941 -1.425881 -1.117336
v -0.057558 -0.038222 -0.561214
v -0.447661 -1.425881 -0.996637
v -0.043535 -0.038222 -0.816635
v -0.433640 -1.425881 -1.252058
v -0.178256 -0.038222 -0.695936
v -0.568360 -1.425881 -1.131359
v -0.129929 -1.075733 -0.913063
v 0.050734 -0.396000 -0.711412
v -0.018208 -0.736230 -0.788364
v -0.083986 -0.396000 -0.590714
v -0.264649 -1.075733 -0.792366
v -0.152928 -0.736230 -0.667665
v -0.204685 -0.396000 -0.725435
v -0.385347 -1.082469 -0.927086
v -0.273626 -0.739781 -0.802385
v -0.069965 -0.396000 -0.846134
v -0.250628 -1.082469 -1.047785
v -0.138906 -0.739781 -0.923084
v -0.312941 -1.425881 -1.117336
v -0.447661 -1.425881 -0.996637
v -0.568360 -1.425881 -1.131359
v -0.433640 -1.425881 -1.252058
vn -1.0000 -0.0000 -0.0000
vn 1.0000 -0.0000 -0.0000
vn -0.0000 -1.0000 -0.0000
vn -0.0000 -0.0000 -1.0000
vn -0.0000 1.0000 -0.0000
vn -0.0000 -0.0000 1.0000
vn -0.9988 -0.0500 -0.0000
vn -0.0000 -0.0722 0.9974
vn -0.0000 -0.0722 -0.9974
vn 0.9988 0.0500 -0.0000
vn -0.0000 -0.1019 -0.9948
vn -0.0000 0.7930 -0.6092
vn -0.0000 0.7027 0.7114
vn -0.0000 -0.7027 -0.7114
vn -0.9938 -0.1111 -0.0000
vn 0.9938 0.1111 -0.0000
vn -0.0000 0.0477 -0.9989
vn -0.0000 0.0477 0.9989
vn -0.0000 -0.7930 0.6092
vn -0.0000 -0.1019 0.9948
vn -0.7928 0.6051 -0.0730
vn 0.0737 0.5473 -0.8337
vn 0.0718 -0.1462 -0.9866
vn -0.9861 0.1369 -0.0941
vn -0.0143 0.6051 0.7960
vn -0.0144 0.1369 0.9905
vn 0.8368 0.5473 0.0180
vn 0.9886 -0.1462 0.0366
vn 0.0605 0.3640 0.9294
vn -0.9172 0.3640 -0.1618
vn -0.3443 0.9382 0.0344
vn -0.0719 0.9382 0.3385
vn 0.9164 -0.3880 0.0982
vn 0.7194 0.6479 0.2504
vn 0.0027 -0.3880 -0.9217
vn -0.1701 0.6479 -0.7425
vn -0.9614 0.2508 -0.1132
vn 0.0420 -0.2664 -0.9630
vn 0.0073 0.2508 0.9680
vn 0.9618 -0.2664 0.0637
vn -0.0730 0.6051 0.7928
vn -0.8337 0.5473 -0.0737
vn -0.9866 -0.1462 -0.0718
vn -0.0941 0.1369 0.9861
vn 0.7960 0.6051 0.0143
vn 0.9905 0.1369 0.0144
vn 0.0180 0.5473 -0.8368
vn 0.0366 -0.1462 -0.9886
vn 0.9294 0.3640 -0.0605
vn -0.1618 0.3640 0.9172
vn 0.0344 0.9382 0.3443
vn 0.3385 0.9382 0.0719
vn 0.0982 -0.3880 -0.9164
vn 0.2504 0.6479 -0.7194
vn -0.9217 -0.3880 -0.0027
vn -0.7425 0.6479 0.1701
vn -0.1132 0.2508 0.9614
vn -0.9630 -0.2664 -0.0420
vn 0.9680 0.2508 -0.0073
vn 0.0637 -0.2664 -0.9618
vn 0.7928 0.6051 0.0730
vn -0.0737 0.5473 0.8337
vn -0.0718 -0.1462 0.9866
vn 0.9861 0.1369 0.0941
vn 0.0143 0.6051 -0.7960
vn 0.0144 0.1369 -0.9905
vn -0.8368 0.5473 -0.0180
vn -0.9886 -0.1462 -0.0366
vn -0.0605 0.3640 -0.9294
vn 0.9172 0.3640 0.1618
vn 0.3443 0.9382 -0.0344
vn 0.0719 0.9382 -0.3385
vn -0.9164 -0.3880 -0.0982
vn -0.7194 0.6479 -0.2504
vn -0.0027 -0.3880 0.9217
vn 0.1701 0.6479 0.7425
vn 0.9614 0.2508 0.1132
vn -0.0420 -0.2664 0.9629
vn -0.0073 0.2508 -0.9680
vn -0.9618 -0.2664 -0.0637
vn 0.0730 0.6051 -0.7928
vn 0.8337 0.5473 0.0737
vn 0.9866 -0.1462 0.0718
vn 0.0941 0.1369 -0.9861
vn -0.7960 0.6051 -0.0143
vn -0.9905 0.1369 -0.0144
vn -0.0180 0.5473 0.8368
vn -0.0366 -0.1462 0.9886
vn -0.9294 0.3640 0.0605
vn 0.1618 0.3640 -0.9172
vn -0.0344 0.9382 -0.3443
vn -0.3385 0.9382 -0.0719
vn -0.0982 -0.3880 0.9164
vn -0.2504 0.6479 0.7194
vn 0.9217 -0.3880 0.0027
vn 0.7425 0.6479 -0.1701
vn 0.1132 0.2508 -0.9614
vn 0.9630 -0.2664 0.0420
vn -0.9680 0.2508 0.0073
vn -0.0637 -0.2664 0.9618
vt 0.000000 0.000000
vt 0.625000 0.500000
vt 0.875000 0.500000
vt 0.875000 0.560283
vt 0.625000 0.560283
vt 0.375000 0.250000
vt 0.625000 0.250000
vt 0.375000 0.500000
vt 0.375000 0.750000
vt 0.625000 0.750000
vt 0.625000 1.000000
vt 0.375000 1.000000
vt 0.375000 0.189717
vt 0.625000 0.189717
vt 0.375000 0.560283
vt 0.625000 0.689717
vt 0.875000 0.689717
vt 0.875000 0.750000
vt 0.125000 0.689717
vt 0.375000 0.689717
vt 0.125000 0.750000
vt 0.125000 0.500000
vt 0.125000 0.560283
vt 0.375000 0.060283
vt 0.625000 0.060283
vt 0.375000 0.000000
vt 0.625000 0.000000
vt 0.442104 1.000000
vt 0.442104 0.750000
vt 0.442104 0.500000
vt 0.442104 0.250000
vt 0.442104 0.000000
vt 0.557896 0.500000
vt 0.557896 0.750000
vt 0.557896 0.250000
vt 0.557896 0.000000
vt 0.500000 0.750000
vt 0.500000 1.000000
vt 0.557896 1.000000
vt 0.500000 0.500000
vt 0.500000 0.250000
vt 0.500000 0.000000
s 0
usemtl Material.002
f 3/1/1 4/1/1 2/1/1 1/1/1
f 6/1/2 5/1/2 7/1/2 8/1/2
f 2/1/3 7/1/3 5/1/3 1/1/3
f 4/1/4 8/1/4 7/1/4 2/1/4
f 3/1/5 6/1/5 8/1/5 4/1/5
f 1/1/6 5/1/6 6/1/6 3/1/6
f 16/2/5 12/3/5 19/4/5 24/5/5
f 11/6/4 12/7/4 16/2/4 15/8/4
f 13/9/6 14/10/6 10/11/6 9/12/6
f 18/13/1 19/14/1 12/7/1 11/6/1
f 15/8/2 16/2/2 24/5/2 21/15/2
f 23/16/5 20/17/5 10/18/5 14/10/5
f 17/19/3 22/20/3 13/9/3 9/21/3
f 22/20/2 23/16/2 14/10/2 13/9/2
f 11/22/3 15/8/3 21/15/3 18/23/3
f 20/17/5 23/16/5 24/5/5 19/4/5
f 22/20/3 17/19/3 18/23/3 21/15/3
f 23/16/2 22/20/2 21/15/2 24/5/2
f 19/14/1 18/13/1 17/24/1 20/25/1
f 9/26/1 10/27/1 20/25/1 17/24/1
f 52/1/7 55/1/7 36/1/7 34/1/7
f 54/1/7 49/1/7 33/1/7 35/1/7
f 49/1/8 58/1/8 47/1/8 33/1/8
f 34/1/9 46/1/9 59/1/9 52/1/9
f 59/1/10 46/1/10 45/1/10 64/1/10
f 61/1/10 48/1/10 47/1/10 58/1/10
f 60/1/2 63/1/2 44/1/2 40/1/2
f 42/1/11 72/1/11 70/1/11 29/1/11
f 53/1/12 62/1/12 41/1/12 32/1/12
f 35/1/9 48/1/9 61/1/9 54/1/9
f 46/1/5 29/1/5 30/1/5 45/1/5
f 37/1/2 41/1/2 62/1/2 57/1/2
f 55/1/8 64/1/8 45/1/8 36/1/8
f 31/1/13 44/1/13 63/1/13 56/1/13
f 28/1/1 50/1/1 53/1/1 32/1/1
f 32/1/3 41/1/3 37/1/3 28/1/3
f 27/1/3 40/1/3 44/1/3 31/1/3
f 51/1/14 60/1/14 40/1/14 27/1/14
f 51/1/1 27/1/1 31/1/1 56/1/1
f 47/1/5 26/1/5 39/1/5 33/1/5
f 56/1/15 55/1/15 52/1/15 51/1/15
f 50/1/15 49/1/15 54/1/15 53/1/15
f 64/1/16 63/1/16 60/1/16 59/1/16
f 58/1/16 57/1/16 62/1/16 61/1/16
f 51/1/17 52/1/17 59/1/17 60/1/17
f 61/1/17 62/1/17 53/1/17 54/1/17
f 63/1/18 64/1/18 55/1/18 56/1/18
f 49/1/18 50/1/18 57/1/18 58/1/18
f 28/1/19 37/1/19 57/1/19 50/1/19
f 39/1/1 66/1/1 68/1/1 38/1/1
f 33/1/5 39/1/5 38/1/5 35/1/5
f 34/1/5 42/1/5 29/1/5 46/1/5
f 45/1/5 30/1/5 43/1/5 36/1/5
f 48/1/5 25/1/5 26/1/5 47/1/5
f 35/1/5 38/1/5 25/1/5 48/1/5
f 36/1/5 43/1/5 42/1/5 34/1/5
f 80/1/2 96/1/2 87/1/2 65/1/2
f 76/1/5 92/1/5 91/1/5 75/1/5
f 26/1/20 65/1/20 66/1/20 39/1/20
f 29/1/2 70/1/2 69/1/2 30/1/2
f 43/1/1 71/1/1 72/1/1 42/1/1
f 25/1/2 67/1/2 65/1/2 26/1/2
f 30/1/20 69/1/20 71/1/20 43/1/20
f 38/1/11 68/1/11 67/1/11 25/1/11
f 77/1/5 80/1/5 76/1/5 75/1/5
f 73/1/5 79/1/5 78/1/5 74/1/5
f 70/1/2 78/1/2 79/1/2 69/1/2
f 66/1/1 88/1/1 93/1/1 77/1/1
f 71/1/1 73/1/1 74/1/1 72/1/1
f 66/1/1 77/1/1 75/1/1 68/1/1
f 67/1/2 76/1/2 80/1/2 65/1/2
f 67/1/2 82/1/2 92/1/2 76/1/2
f 84/1/4 90/1/4 94/1/4 83/1/4
f 87/1/6 96/1/6 93/1/6 88/1/6
f 86/1/6 95/1/6 89/1/6 85/1/6
f 81/1/4 91/1/4 92/1/4 82/1/4
f 68/1/3 81/1/3 82/1/3 67/1/3
f 77/1/5 75/1/5 91/1/5 93/1/5
f 70/1/2 83/1/2 94/1/2 78/1/2
f 78/1/5 94/1/5 90/1/5 74/1/5
f 74/1/1 90/1/1 84/1/1 72/1/1
f 73/1/5 89/1/5 95/1/5 79/1/5
f 69/1/3 86/1/3 85/1/3 71/1/3
f 79/1/2 95/1/2 86/1/2 69/1/2
f 71/1/1 85/1/1 89/1/1 73/1/1
f 77/1/5 93/1/5 96/1/5 80/1/5
f 75/1/1 91/1/1 81/1/1 68/1/1
f 65/1/3 87/1/3 88/1/3 66/1/3
f 72/1/3 84/1/3 83/1/3 70/1/3
f 73/1/5 74/1/5 90/1/5 89/1/5
s 1
f 101/9/21 97/12/22 106/28/23 114/29/24
f 103/8/25 101/9/21 114/29/24 111/30/26
f 97/26/22 99/6/27 108/31/28 106/32/23
f 99/22/27 97/21/22 101/9/21 103/8/25
f 104/2/5 102/10/5 98/18/5 100/3/5
f 99/6/27 103/8/25 111/30/26 108/31/28
f 112/33/29 115/34/30 120/10/31 119/2/32
f 109/35/33 112/33/29 119/2/32 118/7/34
f 105/36/35 109/35/33 118/7/34 117/27/36
f 115/34/30 116/37/37 107/38/38 105/39/35
f 116/37/37 114/29/24 106/28/23 107/38/38
f 112/33/29 113/40/39 116/37/37 115/34/30
f 113/40/39 111/30/26 114/29/24 116/37/37
f 109/35/33 110/41/40 113/40/39 112/33/29
f 110/41/40 108/31/28 111/30/26 113/40/39
f 105/36/35 107/42/38 110/41/40 109/35/33
f 107/42/38 106/32/23 108/31/28 110/41/40
f 115/34/30 105/39/35 117/11/36 120/10/31
f 98/18/5 117/18/36 118/3/34 100/3/5
f 100/3/5 118/3/34 119/2/32 104/2/5
f 104/2/5 119/2/32 120/10/31 102/10/5
f 102/10/5 120/10/31 117/18/36 98/18/5
f 125/9/41 121/12/42 130/28/43 138/29/44
f 127/8/45 125/9/41 138/29/44 135/30/46
f 121/26/42 123/6/47 132/31/48 130/32/43
f 123/22/47 121/21/42 125/9/41 127/8/45
f 128/2/5 126/10/5 122/18/5 124/3/5
f 123/6/47 127/8/45 135/30/46 132/31/48
f 136/33/49 139/34/50 144/10/51 143/2/52
f 133/35/53 136/33/49 143/2/52 142/7/54
f 129/36/55 133/35/53 142/7/54 141/27/56
f 139/34/50 140/37/57 131/38/58 129/39/55
f 140/37/57 138/29/44 130/28/43 131/38/58
f 136/33/49 137/40/59 140/37/57 139/34/50
f 137/40/59 135/30/46 138/29/44 140/37/57
f 133/35/53 134/41/60 137/40/59 136/33/49
f 134/41/60 132/31/48 135/30/46 137/40/59
f 129/36/55 131/42/58 134/41/60 133/35/53
f 131/42/58 130/32/43 132/31/48 134/41/60
f 139/34/50 129/39/55 141/11/56 144/10/51
f 122/18/5 141/18/56 142/3/54 124/3/5
f 124/3/5 142/3/54 143/2/52 128/2/5
f 128/2/5 143/2/52 144/10/51 126/10/5
f 126/10/5 144/10/51 141/18/56 122/18/5
f 149/9/61 145/12/62 154/28/63 162/29/64
f 151/8/65 149/9/61 162/29/64 159/30/66
f 145/26/62 147/6/67 156/31/68 154/32/63
f 147/22/67 145/21/62 149/9/61 151/8/65
f 152/2/5 150/10/5 146/18/5 148/3/5
f 147/6/67 151/8/65 159/30/66 156/31/68
f 160/33/69 163/34/70 168/10/71 167/2/72
f 157/35/73 160/33/69 167/2/72 166/7/74
f 153/36/75 157/35/73 166/7/74 165/27/76
f 163/34/70 164/37/77 155/38/78 153/39/75
f 164/37/77 162/29/64 154/28/63 155/38/78
f 160/33/69 161/40/79 164/37/77 163/34/70
f 161/40/79 159/30/66 162/29/64 164/37/77
f 157/35/73 158/41/80 161/40/79 160/33/69
f 158/41/80 156/31/68 159/30/66 161/40/79
f 153/36/75 155/42/78 158/41/80 157/35/73
f 155/42/78 154/32/63 156/31/68 158/41/80
f 163/34/70 153/39/75 165/11/76 168/10/71
f 146/18/5 165/18/76 166/3/74 148/3/5
f 148/3/5 166/3/74 167/2/72 152/2/5
f 152/2/5 167/2/72 168/10/71 150/10/5
f 150/10/5 168/10/71 165/18/76 146/18/5
f 173/9/81 169/12/82 178/28/83 186/29/84
f 175/8/85 173/9/81 186/29/84 183/30/86
f 169/26/82 171/6/87 180/31/88 178/32/83
f 171/22/87 169/21/82 173/9/81 175/8/85
f 176/2/5 174/10/5 170/18/5 172/3/5
f 171/6/87 175/8/85 183/30/86 180/31/88
f 184/33/89 187/34/90 192/10/91 191/2/92
f 181/35/93 184/33/89 191/2/92 190/7/94
f 177/36/95 181/35/93 190/7/94 189/27/96
f 187/34/90 188/37/97 179/38/98 177/39/95
f 188/37/97 186/29/84 178/28/83 179/38/98
f 184/33/89 185/40/99 188/37/97 187/34/90
f 185/40/99 183/30/86 186/29/84 188/37/97
f 181/35/93 182/41/100 185/40/99 184/33/89
f 182/41/100 180/31/88 183/30/86 185/40/99
f 177/36/95 179/42/98 182/41/100 181/35/93
f 179/42/98 178/32/83 180/31/88 182/41/100
f 187/34/90 177/39/95 189/11/96 192/10/91
f 170/18/5 189/18/96 190/3/94 172/3/5
f 172/3/5 190/3/94 191/2/92 176/2/5
f 176/2/5 191/2/92 192/10/91 174/10/5
f 174/10/5 192/10/91 189/18/96 170/18/5
