# Blender 3.6.22
# www.blender.org
mtllib Tablee.mtl
o Table
v -0.692615 1.589631 0.491653
v 0.692623 1.589631 0.491653
v -0.692615 1.589631 -0.491625
v 0.692623 1.589631 -0.491625
v -2.204133 1.589631 -2.204124
v -2.204133 1.589631 2.204149
v 2.204142 1.589631 2.204149
v 2.204142 1.589631 -2.204124
v -0.147755 0.406352 0.491653
v 0.147749 0.406352 0.491653
v 0.147749 0.406352 -0.491625
v -0.147755 0.406352 -0.491625
v -0.566682 0.406352 0.491653
v -0.566682 0.406352 -0.491625
v -1.757558 -1.278454 -0.491625
v -1.757558 -1.278454 0.491653
v 0.566690 0.406352 0.491653
v 1.757565 -1.278454 0.491653
v 1.757565 -1.278454 -0.491625
v 0.566690 0.406352 -0.491625
v 0.034829 1.589631 2.204149
v -0.034821 1.589631 2.204149
v -0.034821 1.589631 -2.204124
v 0.034829 1.589631 -2.204124
v -0.256240 1.589631 0.491653
v 0.256242 1.589631 0.491653
v 0.256242 1.589631 -0.491625
v -0.256240 1.589631 -0.491625
v 0.915429 -1.278454 0.491653
v -0.915416 -1.278454 0.491653
v -0.915416 -1.278454 -0.491625
v 0.915429 -1.278454 -0.491625
v 0.322000 -0.436051 0.491653
v 0.919836 -0.436051 -0.491625
v 0.919836 -0.436051 0.491653
v 0.322000 -0.436051 -0.491625
v -0.321990 -0.436051 -0.491625
v -0.919827 -0.436051 0.491653
v -0.919827 -0.436051 -0.491625
v -0.321990 -0.436051 0.491653
v -0.201998 0.997992 0.491653
v 0.629657 0.997992 0.491653
v 0.629657 0.997992 -0.491625
v -0.629648 0.997992 -0.491625
v 0.201996 0.997992 -0.491625
v -0.629648 0.997992 0.491653
v -0.201998 0.997992 -0.491625
v 0.201996 0.997992 0.491653
v -0.304266 -1.231953 1.801741
v -0.222560 -1.428413 1.801741
v -0.222560 -1.428413 -1.801716
v 0.222554 -1.428413 -1.801716
v 0.304266 -1.231953 -1.801716
v 0.222554 -1.428413 1.801741
v -0.304266 -1.231953 -1.801716
v 0.304266 -1.231953 1.801741
v -0.304266 -1.074330 1.512447
v -0.292831 -0.751966 1.231928
v -0.300917 -0.937634 1.352694
v -0.213956 -1.217385 1.229258
v -0.222560 -1.428413 1.513840
v -0.220039 -1.366603 1.352316
v -0.213956 -1.217385 -1.229231
v -0.222560 -1.428413 -1.513813
v -0.220039 -1.366603 -1.352289
v 0.222554 -1.428413 -1.513813
v 0.213950 -1.217385 -1.229231
v 0.220035 -1.366604 -1.352289
v 0.304266 -1.074329 -1.512421
v 0.292831 -0.751966 -1.231901
v 0.300917 -0.937635 -1.352667
v 0.213950 -1.217385 1.229258
v 0.222554 -1.428413 1.513840
v 0.220035 -1.366604 1.352316
v -0.292831 -0.751966 -1.231901
v -0.304266 -1.074329 -1.512421
v -0.300917 -0.937634 -1.352667
v 0.292831 -0.751966 1.231928
v 0.304266 -1.074330 1.512447
v 0.300917 -0.937635 1.352694
v -2.204133 1.849242 -2.204124
v -2.204133 1.849242 2.204149
v 2.204142 1.849242 2.204149
v 2.204142 1.849242 -2.204124
v 0.034829 1.849242 2.204149
v -0.034821 1.849242 2.204149
v -0.034821 1.849242 -2.204124
v 0.034829 1.849242 -2.204124
vn 0.7091 0.7051 -0.0000
vn 1.0000 -0.0000 -0.0000
vn -1.0000 -0.0000 -0.0000
vn -0.0000 -1.0000 -0.0000
vn -0.0000 -0.0000 1.0000
vn -0.0000 -0.0000 -1.0000
vn -0.7091 0.7051 -0.0000
vn -0.0000 1.0000 -0.0000
vn -0.9793 -0.2026 -0.0000
vn -0.9944 -0.1058 -0.0000
vn 0.9944 -0.1058 -0.0000
vn 0.9793 -0.2025 -0.0000
vn -0.8175 -0.5759 -0.0000
vn 0.9222 0.3866 -0.0000
vn 0.8175 -0.5759 -0.0000
vn -0.9222 0.3866 -0.0000
vn 0.9557 -0.2839 -0.0775
vn 0.9557 -0.2839 0.0775
vn -0.9249 -0.1156 0.3621
vn -0.0000 0.8781 0.4784
vn -0.9557 -0.2839 0.0775
vn -0.0000 0.8781 -0.4784
vn -0.9249 -0.1156 -0.3621
vn 0.9249 -0.1156 0.3621
vn -0.0000 0.3896 0.9210
vn -0.0000 0.3896 -0.9210
vn 0.9249 -0.1156 -0.3621
vn -0.0000 -0.4136 -0.9105
vn -0.0000 -0.4136 0.9105
vn -0.9438 -0.1676 -0.2850
vn -0.9691 -0.2014 -0.1421
vn -0.0000 -0.9340 0.3574
vn -0.0000 -0.6362 0.7715
vn 0.9437 -0.1676 0.2851
vn 0.9691 -0.2014 0.1422
vn -0.0000 -0.9340 -0.3574
vn -0.0000 -0.6362 -0.7715
vn -0.9438 -0.1676 0.2850
vn -0.9691 -0.2014 0.1421
vn 0.9437 -0.1676 -0.2851
vn 0.9691 -0.2014 -0.1422
vn -0.0000 0.5452 0.8383
vn -0.0000 0.7598 0.6501
vn -0.0000 0.5452 -0.8383
vn -0.0000 0.7598 -0.6501
vn -0.9557 -0.2839 -0.0775
vt 0.670684 0.670684
vt 0.670684 0.329316
vt 0.670684 0.329316
vt 0.670684 0.670684
vt 1.000000 0.000000
vt 1.000000 1.000000
vt 0.000000 1.000000
vt 0.000000 0.000000
vt 0.507900 0.670684
vt 0.507900 1.000000
vt 0.329316 0.329316
vt 0.492100 0.329316
vt 0.492100 0.000000
vt 0.329316 0.670684
vt 0.492100 0.000000
vt 0.507900 1.000000
vt 0.492100 0.670684
vt 0.492100 1.000000
vt 0.507900 0.000000
vt 0.507900 0.000000
vt 0.492100 1.000000
vt 0.507900 0.329316
vt 0.507900 0.670684
vt 0.492100 0.670684
vt 0.492100 0.329316
vt 0.329316 0.670684
vt 0.507900 0.670684
vt 0.492100 0.329316
vt 0.492100 0.670684
vt 0.507900 0.670684
vt 0.507900 0.329316
vt 0.329316 0.329316
vt 0.329316 0.670684
vt 0.670684 0.670684
vt 0.670684 0.329316
vt 0.670684 0.329316
vt 0.507900 0.670684
vt 0.492100 0.670684
vt 0.492145 0.329316
vt 0.492144 0.329316
vt 0.507855 0.670684
vt 0.492145 0.670684
vt 0.507856 0.670684
vt 0.507855 0.329316
vt 0.492144 0.670684
vt 0.507856 0.329316
s 0
usemtl Material.002
f 34/1/1 35/2/1 18/3/1 19/4/1
f 7/5/2 8/6/2 84/6/2 83/5/2
f 5/7/3 6/8/3 82/8/3 81/7/3
f 4/4/4 27/9/4 24/10/4 8/6/4
f 1/11/4 25/12/4 22/13/4 6/8/4
f 3/14/4 1/11/4 6/8/4 5/7/4
f 6/8/5 22/15/5 86/13/5 82/8/5
f 2/3/4 4/4/4 8/6/4 7/5/4
f 8/6/6 24/16/6 88/10/6 84/6/6
f 28/17/4 3/14/4 5/7/4 23/18/4
f 21/19/5 7/5/5 83/5/5 85/20/5
f 23/21/6 5/7/6 81/7/6 87/18/6
f 35/2/5 33/22/5 29/22/5 18/3/5
f 29/22/4 32/23/4 19/4/4 18/3/4
f 16/11/4 15/14/4 31/24/4 30/25/4
f 38/11/7 39/26/7 15/14/7 16/11/7
f 36/27/6 34/1/6 19/4/6 32/9/6
f 39/26/6 37/17/6 31/17/6 15/14/6
f 40/28/5 38/11/5 16/11/5 30/12/5
f 28/17/4 23/18/4 24/10/4 27/9/4
f 26/22/4 21/20/4 22/13/4 25/12/4
f 21/19/5 85/20/5 86/13/5 22/15/5
f 23/21/6 87/18/6 88/10/6 24/16/6
f 87/21/8 86/15/8 85/19/8 88/16/8
f 47/29/6 28/24/6 27/23/6 45/30/6
f 48/31/5 26/22/5 25/25/5 41/25/5
f 26/22/4 2/3/4 7/5/4 21/20/4
f 33/22/9 10/22/9 11/23/9 36/27/9
f 41/25/5 46/11/5 13/32/5 9/25/5
f 44/33/6 47/29/6 12/29/6 14/33/6
f 45/30/6 43/1/6 20/34/6 11/23/6
f 46/11/10 44/33/10 14/33/10 13/32/10
f 42/35/5 48/31/5 10/22/5 17/36/5
f 43/1/11 42/35/11 17/36/11 20/34/11
f 37/17/12 12/29/12 9/25/12 40/28/12
f 12/29/4 11/23/4 10/22/4 9/25/4
f 29/22/13 33/22/13 36/27/13 32/23/13
f 11/23/6 20/34/6 34/1/6 36/27/6
f 17/36/5 10/22/5 33/22/5 35/2/5
f 20/34/14 17/36/14 35/2/14 34/1/14
f 31/24/15 37/17/15 40/28/15 30/25/15
f 9/25/5 13/32/5 38/11/5 40/28/5
f 14/33/6 12/29/6 37/17/6 39/26/6
f 13/32/16 14/33/16 39/26/16 38/11/16
f 4/4/11 2/3/11 42/35/11 43/1/11
f 2/3/5 26/22/5 48/31/5 42/35/5
f 1/11/10 3/14/10 44/33/10 46/11/10
f 27/23/6 4/4/6 43/1/6 45/30/6
f 3/14/6 28/24/6 47/29/6 44/33/6
f 25/25/5 1/11/5 46/11/5 41/25/5
f 73/22/17 79/31/17 56/31/17 54/22/17
f 69/30/18 66/23/18 52/23/18 53/30/18
f 12/29/19 47/29/19 75/29/19 63/29/19
f 61/25/4 73/22/4 54/22/4 50/25/4
f 79/31/20 57/25/20 49/25/20 56/31/20
f 66/23/4 64/29/4 51/29/4 52/23/4
f 64/29/21 76/29/21 55/29/21 51/29/21
f 76/29/22 69/30/22 53/30/22 55/29/22
f 41/25/23 9/25/23 60/25/23 58/25/23
f 54/22/5 56/31/5 49/25/5 50/25/5
f 51/29/6 55/29/6 53/30/6 52/23/6
f 45/30/24 11/23/24 67/23/24 70/37/24
f 48/31/25 41/25/25 58/25/25 78/31/25
f 47/29/26 45/30/26 70/30/26 75/38/26
f 10/22/27 48/31/27 78/31/27 72/22/27
f 9/25/28 10/22/28 72/22/28 60/25/28
f 11/23/29 12/29/29 63/29/29 67/23/29
f 58/25/30 60/25/30 62/39/30 59/40/30
f 59/40/31 62/39/31 61/25/31 57/25/31
f 64/29/32 66/23/32 68/41/32 65/42/32
f 65/42/33 68/41/33 67/23/33 63/29/33
f 70/37/34 67/23/34 68/41/34 71/43/34
f 71/43/35 68/41/35 66/23/35 69/30/35
f 73/22/36 61/25/36 62/39/36 74/44/36
f 74/44/37 62/39/37 60/25/37 72/22/37
f 63/29/38 75/29/38 77/45/38 65/42/38
f 65/42/39 77/45/39 76/29/39 64/29/39
f 72/22/40 78/31/40 80/46/40 74/44/40
f 74/44/41 80/46/41 79/31/41 73/22/41
f 78/31/42 58/25/42 59/40/42 80/46/42
f 80/46/43 59/40/43 57/25/43 79/31/43
f 75/38/44 70/30/44 71/43/44 77/45/44
f 77/45/45 71/43/45 69/30/45 76/29/45
f 57/25/46 61/25/46 50/25/46 49/25/46
f 83/5/8 84/6/8 88/16/8 85/19/8
f 81/7/8 82/8/8 86/15/8 87/21/8
